HIERARCHY
ROOT Bip001_Pelvis
{
  OFFSET 34.4345 95.6767 -26.8758
  CHANNELS 6 Xposition Yposition Zposition Zrotation Xrotation Yrotation
  JOINT Bip001_Spine
  {
    OFFSET 1.4188e-005 10.2191 -0.0116013
    CHANNELS 3 Zrotation Xrotation Yrotation
    JOINT Bip001_L_Thigh
    {
      OFFSET 11.0458 -10.2192 0.0116197
      CHANNELS 3 Zrotation Xrotation Yrotation
      JOINT Bip001_L_Calf
      {
        OFFSET -0.707118 -44.0221 0.360014
        CHANNELS 3 Zrotation Xrotation Yrotation
        JOINT Bip001_L_Foot
        {
          OFFSET -0.651902 -40.5938 -3.56146
          CHANNELS 3 Zrotation Xrotation Yrotation
          JOINT Bip001_L_Toe0
          {
            OFFSET 0.0530839 -10.2181 13.1504
            CHANNELS 3 Zrotation Xrotation Yrotation
            End Site
            {
              OFFSET -1.02532e-005 0 7.55606
            }
          }
        }
      }
    }
    JOINT Bip001_R_Thigh
    {
      OFFSET -11.0458 -10.2191 0.0115893
      CHANNELS 3 Zrotation Xrotation Yrotation
      JOINT Bip001_R_Calf
      {
        OFFSET 0.706994 -44.0221 0.35984
        CHANNELS 3 Zrotation Xrotation Yrotation
        JOINT Bip001_R_Foot
        {
          OFFSET 0.651786 -40.5938 -3.5613
          CHANNELS 3 Zrotation Xrotation Yrotation
          JOINT Bip001_R_Toe0
          {
            OFFSET -0.0531479 -10.2181 13.1504
            CHANNELS 3 Zrotation Xrotation Yrotation
            End Site
            {
              OFFSET -1.02894e-005 0 7.55606
            }
          }
        }
      }
    }
    JOINT Bip001_Spine1
    {
      OFFSET 1.87041e-005 14.5736 1.08638
      CHANNELS 3 Zrotation Xrotation Yrotation
      JOINT Bip001_Spine2
      {
        OFFSET 2.24614e-005 14.5058 -1.69078
        CHANNELS 3 Zrotation Xrotation Yrotation
        JOINT Bip001_Neck
        {
          OFFSET 2.20278e-005 15.3945 -0.489414
          CHANNELS 3 Zrotation Xrotation Yrotation
          JOINT Bip001_L_Clavicle
          {
            OFFSET 6.06036 -0.000579998 0.00836775
            CHANNELS 3 Zrotation Xrotation Yrotation
            JOINT Bip001_L_UpperArm
            {
              OFFSET 11.5509 -0.0600302 0.00193952
              CHANNELS 3 Zrotation Xrotation Yrotation
              JOINT Bip001_L_Forearm
              {
                OFFSET 25.9523 0.0806089 -2.15551
                CHANNELS 3 Zrotation Xrotation Yrotation
                JOINT Bip001_L_Hand
                {
                  OFFSET 32.2475 0.153767 1.63968
                  CHANNELS 3 Zrotation Xrotation Yrotation
                  JOINT Bip001_L_Finger0
                  {
                    OFFSET 6.04639 -2.20976 5.90322
                    CHANNELS 3 Zrotation Xrotation Yrotation
                    End Site
                    {
                      OFFSET 4.22375 -1.43895 0.606485
                    }
                  }
                  JOINT Bip001_L_Finger1
                  {
                    OFFSET 11.0826 -0.704819 -0.198153
                    CHANNELS 3 Zrotation Xrotation Yrotation
                    End Site
                    {
                      OFFSET 6.20027 -0.397518 -0.0787166
                    }
                  }
                }
              }
            }
          }
          JOINT Bip001_R_Clavicle
          {
            OFFSET -6.06037 -0.000563197 0.00835105
            CHANNELS 3 Zrotation Xrotation Yrotation
            JOINT Bip001_R_UpperArm
            {
              OFFSET -11.5509 -0.0599978 0.00190698
              CHANNELS 3 Zrotation Xrotation Yrotation
              JOINT Bip001_R_Forearm
              {
                OFFSET -25.9523 0.0806822 -2.15589
                CHANNELS 3 Zrotation Xrotation Yrotation
                JOINT Bip001_R_Hand
                {
                  OFFSET -32.2475 0.153859 1.63989
                  CHANNELS 3 Zrotation Xrotation Yrotation
                  JOINT Bip001_R_Finger0
                  {
                    OFFSET -6.04641 -2.20976 5.90317
                    CHANNELS 3 Zrotation Xrotation Yrotation
                    End Site
                    {
                      OFFSET -4.22376 -1.43895 0.60647
                    }
                  }
                  JOINT Bip001_R_Finger1
                  {
                    OFFSET -11.0826 -0.704794 -0.198182
                    CHANNELS 3 Zrotation Xrotation Yrotation
                    End Site
                    {
                      OFFSET -6.20028 -0.397504 -0.0787333
                    }
                  }
                }
              }
            }
          }
          JOINT Bip001_Head
          {
            OFFSET 1.09673e-005 11.2744 2.05948
            CHANNELS 3 Zrotation Xrotation Yrotation
            End Site
            {
              OFFSET 2.89576e-005 20.8808 -2.77728e-005
            }
          }
        }
      }
    }
  }
}
MOTION
Frames:	15
Frame Time:	0.04
33.5524 95.0998 -30.1117 -2.2061 0.456781 19.3565 -0.267721 2.33812 1.34226 8.37383 -13.6013 4.38543 -0.509914 18.8728 -15.0634 3.35955 -7.30622 0.058088 1.29669 -4.9009 -1.18854 -0.851205 -2.05262 -3.02208 2.54999 10.688 -2.08313 -11.5263 -4.93069 -17.5589 3.14599 -10.3345 3.29531 -0.608121 4.66888 2.70396 -0.59145 4.66892 2.70173 3.52226 -7.74319 -4.04009 -28.3895 8.39954 -0.636256 -50.5683 34.0169 10.8514 18.7614 -0.95048 -39.7651 8.54744 1.10589 -5.31562 3.18055e-015 6.36111e-015 3.18055e-015 1.59028e-015 3.18056e-015 -0 6.14982 13.2284 27.293 40.9815 -43.4463 27.7419 -68.68 -1.75335 80.914 -33.7234 -11.8144 1.46306 4.77083e-015 6.36111e-015 5.56597e-015 4.77083e-015 6.36111e-015 4.77083e-015 -6.61308 9.24213 -1.14494 
33.3847 95.0953 -29.7584 -1.99064 0.935107 22.8363 -0.447166 2.35033 1.32931 7.78757 -14.3185 2.46369 -0.358512 18.1009 -16.6451 3.38235 -6.66891 0.0410261 1.36863 -5.09262 -1.21781 -0.506792 -1.68983 -3.42907 2.58332 10.3785 -2.33494 -11.927 -4.54298 -19.9059 3.17295 -10.3126 3.14343 -0.94141 4.69198 2.67765 -0.949813 4.69153 2.67877 4.76859 -7.37258 -4.80524 -28.7939 7.54067 -0.0648848 -49.9317 35.1233 10.516 19.5755 0.220983 -38.8478 6.81985 0.864413 -5.15688 1.05934e-030 -9.54166e-015 6.36111e-015 -1.59028e-015 -6.36111e-015 3.18055e-015 6.85687 12.3356 22.7947 61.2538 -52.0433 45.7757 -70.9537 -4.54437 88.5305 -8.76265 -17.9877 -3.04607 -6.36111e-015 -9.54166e-015 -0 -9.54166e-015 -9.54167e-015 1.59028e-015 -7.56479 11.0744 -1.03241 
33.533 95.09 -29.608 -1.27467 0.962903 24.8912 -0.687003 2.10343 0.649597 6.90076 -13.6612 3.0331 0.488258 17.2131 -18.7604 3.29995 -6.13503 0.0246197 1.49169 -5.09186 -1.32424 -1.00751 -0.959409 -3.97756 2.94569 10.8029 -2.68888 -12.252 -4.7739 -20.371 3.23468 -10.4056 3.09433 -1.41373 4.19884 1.32487 -1.40668 4.19882 1.32594 8.536 -3.09332 -5.47152 -29.5571 3.15385 -1.65344 -53.8031 33.8359 14.4471 18.0763 -0.132694 -38.1301 9.11694 1.28573 -4.77541 0 0 -0 -1.76556e-031 -3.18056e-015 -3.18055e-015 6.18458 7.97158 20.6668 49.7611 -47.4516 40.4948 -64.345 -3.5491 81.776 -9.51896 -13.0415 0.654587 -6.36111e-015 3.18055e-015 1.59028e-015 -6.36111e-015 3.18056e-015 1.59028e-015 -10.6272 10.7072 0.304453 
33.8261 95.2204 -29.3404 0.168593 -0.196013 20.4103 -0.601243 1.93034 0.160666 6.45607 -9.76824 5.34472 0.187592 15.6393 -15.9057 1.81294 -6.88166 0.0299066 1.15469 -4.04921 -1.11946 -2.39337 -0.158087 -2.98202 2.45664 11.9425 -2.11742 -11.8466 -5.6959 -17.7065 3.22408 -10.4396 3.17738 -1.21447 3.85878 0.346561 -1.21152 3.85882 0.34454 5.19676 0.68943 -2.86666 -26.8279 0.352703 -2.32338 -58.5716 35.8622 19.3828 16.4651 -1.84968 -36.406 10.5421 1.12447 -4.19776 -4.77083e-015 6.36111e-015 -3.18055e-015 -3.18055e-015 3.18056e-015 -0 6.28723 3.82917 21.4955 42.5261 -38.2441 35.5616 -53.5736 -3.38817 74.1566 -20.179 -5.33093 2.53676 -8.82781e-032 3.18055e-015 1.59028e-015 -0 0 3.18055e-015 -8.9558 10.1445 1.50157 
33.9288 95.2899 -29.297 0.725635 -0.925831 13.4613 -0.361456 2.07077 0.349854 6.2225 -6.90227 7.62059 -0.300592 14.4782 -11.334 1.08632 -7.57809 0.0358373 1.04269 -3.52509 -1.05292 -3.57268 -1.15588 -1.97761 1.72793 13.2141 -1.54697 -10.7503 -7.1154 -13.4131 3.06829 -10.1809 3.31094 -0.730946 4.13979 0.697988 -0.734242 4.13963 0.705163 0.828578 -1.94256 -0.539125 -24.2568 3.31607 -1.18802 -59.3201 40.0988 18.8889 15.2367 -2.15355 -33.0284 5.70435 1.02291 -3.51668 1.59028e-015 0 1.59028e-015 6.36111e-015 0 -0 8.18545 6.17679 21.3784 33.8206 -29.4753 33.6114 -48.4414 -5.09954 67.1505 -29.7593 -4.46078 2.29497 -3.18055e-015 0 -0 -3.18055e-015 0 -0 -5.24416 11.5383 1.40794 
33.7228 95.2444 -29.3573 -0.0637256 -1.79235 7.93458 0.0170247 2.15486 0.922959 6.74068 -5.51647 7.5731 -0.617103 15.082 -6.70727 2.19742 -7.83835 0.0590245 1.50173 -4.18409 -1.28663 -3.34388 -1.62611 -1.96578 1.11852 13.4405 -0.419492 -9.90126 -7.78178 -10.0144 2.87607 -9.77627 3.35495 0.00977703 4.30946 1.84588 0.00977706 4.30951 1.84588 1.08719 -3.59434 -1.66616 -25.1077 5.10521 -1.93806 -60.6466 43.8341 19.5928 15.7239 -1.05625 -30.8428 0.40067 1.44269 -2.47801 0 0 -1.59028e-015 -1.59028e-015 3.18056e-015 -3.18055e-015 7.10222 7.66788 21.9581 33.4042 -24.8227 34.706 -49.3588 -4.48141 65.4493 -28.1651 -3.9612 3.98397 -0 -3.18055e-015 -0 -8.82782e-032 -3.18056e-015 -1.59028e-015 -5.08629 10.8237 0.294258 
33.4547 95.2106 -29.2882 -0.382594 -2.46145 4.78579 0.128384 2.20459 0.858998 6.66548 -4.33575 7.04407 -0.146643 15.2162 -3.55262 1.83925 -8.08653 0.0603951 1.31994 -4.25505 -1.02477 -3.21485 -1.59171 -2.28854 0.739831 13.575 0.0776763 -9.21943 -8.54234 -7.38305 2.72839 -9.42039 3.32548 0.225628 4.41093 1.71408 0.216072 4.41095 1.71484 2.15421 -5.18773 -2.83001 -26.0068 6.60993 -2.36468 -62.1453 44.5461 20.226 17.0601 0.71613 -29.8622 0.243447 1.03101 -1.91086 -1.59028e-015 0 -0 -0 -3.18056e-015 -0 8.24079 10.1136 23.4658 34.7862 -23.8704 33.3304 -50.4929 -2.43828 69.8921 -25.5305 -4.20959 3.86788 8.82781e-032 3.18055e-015 -1.59028e-015 0 0 -0 -4.47374 10.9064 -0.762748 
33.3339 95.2412 -29.2503 0.370577 -2.76159 2.53432 0.0106047 2.24039 0.418427 5.73488 -2.6113 8.25815 0.241435 13.3977 -2.42555 1.47749 -7.42994 0.0360012 1.25696 -4.32169 -0.810013 -4.12791 -2.12712 -2.40067 0.644432 14.6041 0.287274 -8.61684 -9.63476 -5.216 2.61564 -9.14294 3.29891 0.00373659 4.48086 0.836754 -2.86372e-005 4.48087 0.83732 1.44574 -6.79999 -3.13213 -25.2028 8.03177 -1.55818 -61.7576 44.1172 18.8553 17.0081 2.07864 -29.2463 2.27584 1.47398 -1.93334 1.59028e-015 3.18055e-015 1.59028e-015 1.59028e-015 -3.18056e-015 1.59028e-015 12.54 13.2452 25.3172 34.4086 -24.3848 27.3173 -52.7525 -0.723023 77.6962 -25.109 -5.44359 4.50671 -3.18055e-015 6.36111e-015 -3.18055e-015 -3.18055e-015 6.36111e-015 -4.77083e-015 -1.62549 11.7036 -2.09355 
33.0186 95.3263 -29.2389 0.362989 -3.26472 -0.113984 0.0223073 2.3289 0.0385057 5.95626 -0.699437 10.5152 -0.289485 11.6576 -1.8056 1.69348 -6.75707 0.0292568 1.36133 -4.60851 -0.853168 -4.07769 -2.16769 -0.844626 0.560362 14.4602 0.472641 -8.27804 -9.75604 -4.19173 2.54404 -8.98749 3.31343 0.0398136 4.65778 0.0760855 0.0402622 4.6578 0.0763399 1.46637 -7.50394 -3.1118 -25.3154 8.36972 -0.264606 -60.9722 44.8983 17.3028 17.4112 2.01187 -28.7485 3.83317 1.65884 -2.42428 -1.59028e-015 -3.18055e-015 1.59028e-015 -3.18055e-015 -3.18056e-015 -0 16.3593 15.2527 25.8373 32.5284 -23.4841 19.419 -55.9383 1.14671 85.1602 -25.2765 -5.91111 4.88834 -9.54166e-015 -3.18055e-015 1.59028e-015 -6.36111e-015 0 -0 -0.216773 11.4098 -2.54044 
32.5818 95.3854 -29.2722 -0.0326508 -3.41519 -1.99846 0.14583 2.33584 -0.199095 6.33569 0.165887 12.1359 -0.210683 11.0938 -1.45624 0.942872 -6.88764 0.0282608 1.13915 -4.41794 -0.564672 -3.6908 -2.10532 -0.0957539 0.522257 13.863 0.511543 -7.88881 -9.74052 -3.17637 2.47248 -8.81139 3.29952 0.297557 4.67115 -0.403174 0.299656 4.67115 -0.403861 2.93873 -7.42354 -3.56724 -26.6566 7.94431 0.239745 -59.8618 46.4765 15.3467 17.2973 0.335867 -28.1479 4.9862 1.62162 -2.48411 1.76556e-031 3.18055e-015 -3.18055e-015 -3.18055e-015 -3.18056e-015 -3.18055e-015 16.8195 15.4581 24.6409 32.2282 -18.2693 10.5911 -58.5413 1.51248 89.8471 -26.1514 -6.30851 5.01764 -3.18055e-015 -6.36111e-015 3.18055e-015 2.64834e-031 -4.77083e-015 3.18055e-015 -1.06113 10.2154 -2.38725 
32.2749 95.452 -29.4376 -0.195695 -3.09235 -3.08321 0.245446 2.33298 -0.446117 6.22904 0.24658 11.9 0.0432476 10.4306 -0.216 0.930523 -6.18206 0.0274002 1.04948 -4.59918 -0.283561 -3.62209 -2.55488 -0.554582 0.496918 13.5498 0.475408 -7.28923 -9.82367 -1.59831 2.39696 -8.50366 3.11215 0.512466 4.66397 -0.906438 0.510491 4.66403 -0.904994 3.23748 -7.18575 -3.61897 -27.2442 7.70382 0.0983007 -57.1436 47.5294 12.0144 17.4576 -0.572014 -27.5549 6.20218 1.50198 -3.02923 -8.82781e-032 3.18055e-015 1.59028e-015 -0 0 3.18055e-015 17.8201 15.0586 22.8189 33.8433 -11.5011 2.30978 -60.2739 2.32878 90.6734 -26.4259 -6.16113 5.16875 -9.54166e-015 -3.18055e-015 1.59028e-015 -6.36111e-015 -3.97569e-015 1.59028e-015 -1.23834 9.08515 -2.32403 
32.0847 95.5502 -29.4714 -0.168448 -3.24494 -4.45627 0.248562 2.52982 -0.558787 6.0415 0.987084 12.467 0.2027 9.42142 0.918537 -0.490279 -6.34643 0.0266993 0.613191 -3.74236 0.0226473 -3.63965 -2.72638 -0.305571 0.420465 13.3285 0.426647 -6.7153 -9.82128 -0.217191 2.3316 -8.03355 2.64117 0.52162 5.05704 -1.13387 0.521104 5.05706 -1.13211 2.12465 -7.04641 -3.23373 -26.1386 7.89063 -0.451699 -52.5233 46.9344 7.26625 16.8254 -1.40929 -27.8312 7.74355 1.75595 -3.49575 -3.18055e-015 0 -0 -3.18055e-015 -3.18056e-015 -0 20.257 14.9245 21.5452 36.6165 -6.18504 -4.93397 -61.1642 5.98558 88.6659 -24.0092 -5.42784 5.45214 -1.59028e-015 -7.95139e-016 1.59028e-015 -0 -1.19271e-015 -0 0.182424 7.60904 -2.60144 
31.872 95.6637 -29.4162 -0.334019 -3.44752 -5.43953 0.230157 2.72659 -0.572766 6.24823 1.96303 11.7911 -0.195528 8.04655 2.82988 -1.31244 -6.12725 0.0260202 0.435979 -3.28777 0.0807334 -3.3745 -2.36341 -0.437695 0.186461 12.3806 0.568229 -6.23298 -9.55083 0.765638 2.25102 -7.72992 2.48505 0.487726 5.45059 -1.15686 0.48814 5.45055 -1.15764 2.10422 -6.0583 -2.89867 -25.7459 7.2373 -1.49754 -48.3666 46.0933 2.77107 16.7819 -2.04098 -28.3803 7.97148 1.8169 -2.93333 3.18055e-015 3.18055e-015 -0 3.18055e-015 0 -1.59028e-015 21.6835 14.1502 21.2217 41.0743 0.952656 -10.8494 -61.159 10.3573 79.3998 -21.0638 -6.35256 6.75881 1.59028e-015 -1.19271e-015 -0 -3.03456e-032 -2.18663e-015 -7.95139e-016 0.24099 5.099 -2.33337 
31.8401 95.703 -29.6096 -0.281573 -3.17193 -6.27259 0.138564 2.74465 -0.511618 6.09905 1.96087 13.285 0.0937764 7.46056 1.84754 -0.822779 -5.4035 0.025291 0.496625 -3.76343 0.138457 -3.44033 -2.82585 -0.115894 0.369032 12.1681 0.307709 -5.78146 -9.50187 1.33482 2.13564 -7.3996 2.40787 0.302566 5.48788 -1.03425 0.302247 5.48789 -1.03294 2.59965 -4.87901 -2.54977 -25.5497 6.34286 -2.55697 -45.7436 43.9182 -0.595142 16.7265 -2.56042 -29.3335 8.55065 1.6653 -3.15292 3.18055e-015 -1.59028e-015 1.59028e-015 -0 0 3.18055e-015 22.3745 13.0224 20.7271 47.1824 10.5037 -14.2292 -58.1618 14.5272 65.101 -15.5074 -5.13956 5.73749 -2.20695e-032 1.59028e-015 7.95139e-016 0 3.18056e-015 -0 -0.0596271 2.65763 -1.78677 
31.9551 95.7487 -29.9074 0.190672 -2.26236 -6.72441 0.0482435 2.56853 -0.542991 5.61653 1.21193 12.634 0.204649 7.1129 3.31553 -1.46902 -5.27197 0.0244905 0.360797 -3.42862 0.209935 -3.92704 -4.00847 0.017861 0.591117 12.3908 0.0974717 -5.32394 -9.55574 1.74729 2.02345 -7.07298 2.32906 0.122395 5.13624 -1.08864 0.121832 5.13622 -1.08929 3.07302 -3.69639 -1.72736 -25.6102 5.60603 -3.84957 -45.2326 40.4231 -2.10866 17.2875 -2.40793 -31.1708 10.3491 1.70753 -3.77616 -3.18055e-015 0 -0 4.41391e-032 1.59028e-015 -1.59028e-015 22.4763 11.65 20.156 52.3238 16.8142 -15.4168 -52.0389 17.7069 52.2574 -1.1187 -4.38373 5.35721 6.36111e-015 -4.77083e-015 -4.77083e-015 6.36111e-015 -1.59028e-015 -3.18055e-015 -0.886122 0.275809 -0.67054 
